# xmcd
#
# Track frame offsets: 
#        150
#        20149
#        39934
#        53939
#        78634
#        105213
#        123610
#        151138
#
# Disc length: 2196 seconds
#
# Revision: 0
# Processed by: cddbd v1.5.2PL0 Copyright (c) Steve Scherf et al.
# Submitted via: ExactAudioCopyFreeDBPlugin 1.0
#
DISCID=5c089208
DTITLE=Sonny Stitt Quartet - Blows The Blues
DYEAR=1960
DGENRE=Blues
TTITLE0=Blue Devil Blues
TTITLE1=Home Free Blues
TTITLE2=Blue Prelude
TTITLE3=Frankie And Johnny
TTITLE4=Birth Of The Blues
TTITLE5=A Blues Offering
TTITLE6=Hymnal Blues
TTITLE7=Morning After Blues
EXTD=
EXTT0=
EXTT1=
EXTT2=
EXTT3=
EXTT4=
EXTT5=
EXTT6=
EXTT7=
PLAYORDER=
